<?xml version="1.0" standalone="no"?>
<!DOCTYPE svg PUBLIC "-//W3C//DTD SVG 20010904//EN"
 "http://www.w3.org/TR/2001/REC-SVG-20010904/DTD/svg10.dtd">
<svg version="1.0" xmlns="http://www.w3.org/2000/svg"
 width="789.000000pt" height="323.000000pt" viewBox="0 0 789.000000 323.000000"
 preserveAspectRatio="xMidYMid meet">

<g transform="translate(0.000000,323.000000) scale(0.100000,-0.100000)"
fill="#000000" stroke="none">
<path d="M964 2053 c4 -16 20 -55 35 -88 l28 -60 52 1 c28 1 55 4 58 7 3 4 -9
42 -27 87 l-32 80 -60 0 -60 0 6 -27z"/>
<path d="M1228 2075 c-7 -7 53 -157 67 -167 16 -12 103 -9 110 3 7 10 -52 158
-64 160 -58 6 -109 8 -113 4z"/>
<path d="M1500 2062 c0 -15 49 -134 61 -148 12 -15 119 -20 119 -6 0 4 -14 42
-31 85 l-31 77 -59 0 c-33 0 -59 -4 -59 -8z"/>
<path d="M1774 2053 c4 -10 19 -48 34 -85 l27 -68 63 0 c34 0 62 2 62 5 0 2
-15 39 -34 82 l-35 78 -62 3 c-56 3 -61 1 -55 -15z"/>
<path d="M868 2029 c-10 -5 -25 -9 -35 -7 -13 2 -21 -12 -36 -57 -36 -115 -36
-114 -23 -109 7 3 21 30 31 62 10 31 22 61 27 66 15 19 17 0 3 -39 -17 -48
-19 -68 -5 -60 5 3 30 -1 55 -10 25 -8 50 -15 55 -15 5 0 17 25 27 56 14 44
15 57 4 63 -7 5 -18 19 -25 32 -13 26 -50 35 -78 18z m52 -19 c0 -5 -4 -10 -9
-10 -6 0 -13 5 -16 10 -3 6 1 10 9 10 9 0 16 -4 16 -10z"/>
<path d="M2136 1841 c-47 -51 14 -133 73 -100 54 30 32 119 -29 119 -15 0 -35
-9 -44 -19z"/>
<path d="M912 1754 l-50 -56 -50 15 -49 14 -23 -71 c-12 -39 -47 -144 -76
-234 -58 -174 -66 -234 -37 -283 18 -31 25 -34 163 -77 134 -42 490 -156 650
-208 74 -24 148 -44 165 -44 68 0 115 57 148 181 8 30 38 126 66 213 27 88 48
162 46 166 -3 4 -25 14 -50 21 -25 7 -45 17 -45 22 0 5 18 31 40 57 22 26 40
50 40 53 0 3 -25 14 -56 24 l-56 17 -52 -57 -53 -57 -54 16 c-30 9 -58 20 -63
25 -6 5 11 30 39 61 l49 52 -29 12 c-17 7 -45 16 -64 20 -31 6 -37 3 -85 -50
l-51 -56 -40 14 c-22 8 -48 15 -57 16 -33 0 -29 21 16 72 25 29 42 56 38 60
-4 4 -30 14 -57 23 l-50 15 -48 -55 c-29 -33 -57 -55 -69 -55 -23 0 -118 32
-118 40 0 3 20 28 45 55 24 28 45 53 45 56 0 6 -94 39 -110 39 -5 0 -31 -25
-58 -56z m322 -326 c39 -23 73 -44 76 -48 3 -4 13 -9 23 -13 9 -4 17 -17 17
-30 0 -20 -17 -32 -104 -77 -134 -70 -136 -68 -129 73 6 103 14 137 35 137 7
0 44 -19 82 -42z"/>
<path d="M1972 1748 c-18 -18 -15 -75 4 -82 46 -18 84 4 84 48 0 37 -61 61
-88 34z"/>
<path d="M2438 1692 c-25 -5 -24 -59 1 -67 30 -9 51 5 51 35 0 29 -18 40 -52
32z"/>
<path d="M2196 1649 c-36 -43 -35 -91 3 -130 22 -21 39 -29 66 -29 27 0 44 8
66 29 61 62 19 161 -69 161 -33 0 -45 -6 -66 -31z"/>
<path d="M2972 1504 c-41 -29 -22 -114 26 -114 34 0 62 29 62 65 0 33 -27 65
-55 65 -6 0 -21 -7 -33 -16z"/>
<path d="M5075 1513 c-66 -8 -75 -13 -75 -38 0 -18 5 -25 19 -25 10 0 22 -7
25 -16 3 -9 6 -84 6 -168 0 -118 -3 -156 -15 -172 -8 -10 -15 -27 -15 -36 0
-16 10 -18 80 -18 91 0 110 14 70 52 -23 21 -23 23 -16 187 4 91 9 183 13 204
6 37 5 37 -28 36 -19 -1 -47 -4 -64 -6z"/>
<path d="M2695 1466 c-5 -2 -22 -7 -38 -10 -38 -9 -104 -71 -116 -109 -32
-108 -19 -201 38 -258 52 -52 104 -65 199 -52 52 8 80 17 89 29 16 21 17 120
2 129 -6 4 -26 4 -45 1 -24 -5 -34 -12 -34 -25 0 -23 -31 -51 -56 -51 -47 1
-64 38 -64 139 0 93 5 110 36 122 39 14 72 -4 76 -43 3 -30 6 -33 39 -36 21
-2 40 2 46 10 13 17 26 135 15 141 -10 7 -174 18 -187 13z"/>
<path d="M4090 1460 c-144 -4 -165 -7 -168 -22 -2 -9 6 -22 17 -28 20 -10 21
-20 21 -155 0 -134 -1 -146 -20 -157 -11 -7 -20 -23 -20 -35 0 -23 0 -23 169
-23 94 0 172 3 174 8 3 4 8 35 12 70 l7 62 -36 0 c-26 0 -38 -5 -43 -17 -12
-35 -36 -53 -69 -53 -38 0 -57 25 -52 68 3 25 7 27 58 30 64 4 82 16 78 51 -3
25 -7 26 -66 29 l-63 3 3 47 3 47 40 0 c33 0 42 -4 53 -27 10 -21 20 -28 43
-28 16 0 32 6 34 13 10 25 10 120 0 121 -5 1 -84 -1 -175 -4z"/>
<path d="M5325 1345 c-22 -8 -52 -27 -66 -44 -48 -52 -48 -170 0 -225 62 -72
206 -53 250 33 29 57 28 137 -2 182 -38 56 -113 78 -182 54z m73 -77 c7 -7 12
-41 12 -85 0 -61 -3 -74 -19 -83 -31 -16 -51 22 -51 95 0 58 11 85 35 85 6 0
16 -5 23 -12z"/>
<path d="M2989 1340 c-86 -11 -100 -28 -54 -68 22 -19 25 -30 25 -88 0 -56 -4
-71 -26 -96 -15 -19 -21 -35 -16 -40 5 -5 44 -8 88 -6 67 3 79 6 82 21 2 10
-4 24 -14 31 -15 12 -17 26 -11 135 5 93 4 121 -6 120 -6 -1 -37 -5 -68 -9z"/>
<path d="M3195 1341 c-27 -4 -56 -10 -62 -14 -19 -12 -16 -35 7 -47 18 -9 20
-21 20 -95 0 -62 -4 -86 -14 -92 -8 -4 -16 -17 -18 -28 -3 -18 3 -20 80 -23
82 -3 82 -3 82 23 0 14 -4 25 -10 25 -6 0 -10 31 -10 74 0 78 12 101 47 94 15
-3 18 -15 21 -77 2 -42 -2 -79 -8 -85 -5 -5 -10 -20 -10 -33 0 -22 3 -23 75
-23 70 0 75 1 75 21 0 12 -7 27 -16 33 -13 10 -14 24 -6 96 10 97 2 132 -34
149 -39 17 -70 13 -102 -14 -31 -26 -42 -24 -42 7 0 10 -6 17 -12 17 -7 -1
-35 -5 -63 -8z"/>
<path d="M3580 1331 c-42 -22 -80 -90 -80 -141 0 -84 48 -144 125 -156 71 -10
163 32 149 69 -6 15 -14 17 -58 12 -42 -6 -56 -3 -75 13 -16 12 -22 25 -18 35
5 14 21 17 81 17 64 0 75 3 81 19 10 32 -12 105 -40 129 -34 28 -115 30 -165
3z m86 -49 c21 -14 24 -41 4 -52 -43 -23 -71 1 -44 39 16 23 23 25 40 13z"/>
<path d="M4383 1342 c-89 -4 -92 -14 -28 -75 25 -24 45 -51 45 -60 0 -8 -22
-44 -50 -78 -27 -34 -50 -68 -50 -76 0 -20 126 -18 133 2 4 8 2 17 -3 20 -15
9 -12 41 6 55 12 11 18 10 32 -3 13 -14 14 -22 5 -46 -6 -17 -8 -32 -5 -35 3
-3 43 -6 89 -6 100 0 104 8 38 74 -25 25 -45 54 -45 64 0 10 16 37 36 61 31
35 42 42 68 39 l31 -3 3 -154 c2 -124 0 -158 -13 -177 -31 -48 -23 -54 75 -54
85 0 90 1 90 21 0 12 -8 23 -20 26 -16 4 -20 14 -20 48 l0 44 54 11 c93 19
136 69 136 160 0 78 -34 130 -94 144 -22 5 -34 2 -52 -15 -24 -22 -44 -19 -44
8 0 11 -6 14 -22 9 -13 -3 -76 -6 -142 -6 l-118 0 6 -33 c4 -22 1 -40 -8 -52
-14 -19 -16 -19 -32 -3 -15 14 -16 22 -6 43 22 49 16 52 -95 47z m484 -102
c31 -61 -2 -160 -44 -134 -22 14 -31 127 -12 150 17 21 41 13 56 -16z"/>
<path d="M5638 1340 c-26 -5 -52 -11 -57 -15 -17 -10 -13 -33 9 -45 18 -9 20
-21 20 -93 0 -70 -3 -85 -20 -100 -11 -9 -20 -24 -20 -32 0 -13 15 -15 98 -13
92 3 97 4 100 26 3 16 -2 22 -16 22 -34 0 -43 23 -36 86 9 78 36 99 55 44 11
-30 24 -36 46 -22 7 4 15 38 19 75 l7 67 -30 0 c-17 0 -42 -9 -56 -20 -33 -26
-37 -25 -37 5 0 27 -3 28 -82 15z"/>
<path d="M5941 1333 c-54 -28 -75 -64 -79 -136 -3 -52 0 -67 20 -97 27 -40 79
-70 123 -70 46 0 119 40 123 68 3 23 2 23 -55 17 -51 -6 -60 -4 -77 14 -32 36
-15 50 66 53 l73 3 0 57 c-1 78 -22 100 -102 105 -42 3 -67 -1 -92 -14z m87
-55 c20 -20 14 -47 -12 -54 -44 -11 -62 19 -30 50 19 19 26 20 42 4z"/>
<path d="M6244 1340 c-82 -12 -92 -26 -49 -66 22 -20 25 -32 25 -87 0 -49 -5
-70 -20 -90 -39 -50 -30 -57 74 -57 86 0 94 2 99 21 3 12 0 22 -9 25 -8 2 -21
6 -29 9 -11 3 -15 20 -15 63 0 87 36 121 60 56 5 -13 16 -24 25 -24 19 0 30
29 38 98 l6 52 -33 0 c-20 0 -40 -8 -51 -20 -23 -26 -33 -25 -37 2 -3 26 -14
29 -84 18z"/>
</g>
</svg>
